<svg width="22" height="22" viewBox="0 0 22 22" fill="none" xmlns="http://www.w3.org/2000/svg">
<mask id="mask0_306_5403" style="mask-type:luminance" maskUnits="userSpaceOnUse" x="0" y="0" width="22" height="22">
<path d="M22 0H0V22H22V0Z" fill="white"/>
</mask>
<g mask="url(#mask0_306_5403)">
<path d="M16.6341 0H5.36585C2.40237 0 0 2.40237 0 5.36585V16.6341C0 19.5976 2.40237 22 5.36585 22H16.6341C19.5976 22 22 19.5976 22 16.6341V5.36585C22 2.40237 19.5976 0 16.6341 0Z" fill="#1159FC"/>
<path d="M9.19516 6.10534C10.1918 5.10877 11.8075 5.10877 12.8041 6.10534L17.2332 10.5344C17.4597 10.761 17.4597 11.1282 17.2332 11.3546L16.249 12.3389C16.0224 12.5654 15.6552 12.5654 15.4288 12.3389L11.4097 8.31989C11.1832 8.09337 10.8161 8.09337 10.5895 8.31989L6.57052 12.3389C6.34402 12.5654 5.9768 12.5654 5.7503 12.3389L4.76606 11.3546C4.53957 11.1282 4.53957 10.761 4.76606 10.5344L9.19516 6.10534Z" fill="white"/>
</g>
</svg>
